Format : AVI
Format/Info : Audio Video Interleave
Format profile : OpenDML
File size : 697 MiB
Duration : 1h 28mn
Overall bit rate : 1 098 Kbps
Writing application : AVI-Mux GUI 1.17.8.3, Feb 16 201019:42:50

Video
ID : 0
Format : MPEG-4 Visual
Format profile : AdvancedSimple@L5
Format settings, BVOP : Yes
Format settings, QPel : No
Format settings, GMC : No warppoints
Format settings, Matrix : Default (H.263)
Codec ID : XVID
Codec ID/Hint : XviD
Duration : 1h 28mn
Bit rate : 645 Kbps
Width : 720 pixels
Height : 320 pixels
Display aspect ratio : 2.25:1
Frame rate : 25.000 fps
Resolution : 24 bits
Colorimetry : 4:2:0
Scan type : Progressive
Bits/(Pixel*Frame) : 0.112
Stream size : 409 MiB (59%)
Writing library : XviD 1.2.1 (UTC 2008-12-04)

Audio
ID : 1
Format : AC-3
Format/Info : Audio Coding 3
Codec ID : 2000
Duration : 1h 28mn
Bit rate mode : Constant
Bit rate : 448 Kbps
Channel(s) : 2 channels
Channel positions : L R
Sampling rate : 44.1 KHz
Stream size : 284 MiB (41%)
Alignment : Aligned on interleaves
Interleave, duration : 70 ms (1.74 video frames)
Interleave, preload duration : 209 ms

Starring

* Eric Balfour
* Scottie Thompson
* Donald Faison

Elaine (Scottie Thompson) and Jarrod (Eric Balfour) have flown to Los Angeles for Jarrod‘s best friend Terry‘s (Donald Faison) birthday party. They spend the night celebrating with his girlfriend, Candice (Brittany Daniel), and his assistant, Denise (Crystal Reed). During the party, one of Terry‘s employees, Ray (Neil Hopkins), welcomes Jarrod to L.A., thinking he has moved there to join Terry‘s company. During a private argument about whether or not they should move to L.A., Elaine reveals that she is pregnant.
 
http://www.imdb.com/title/tt1564585/

screens

 
http://img406.imageshack.us/img406/4433/skylinexvidviceavisnaps.jpg 
http://img192.imageshack.us/img192/4433/skylinexvidviceavisnaps.jpg 
http://img405.imageshack.us/img405/4433/skylinexvidviceavisnaps.jpg 
http://img839.imageshack.us/img839/4433/skylinexvidviceavisnaps.jpg 